<svg width="1410" height="805" viewBox="0 0 1410 805" fill="none" xmlns="http://www.w3.org/2000/svg">
<line x1="1" y1="0.5" x2="1414" y2="0.500126" stroke="#D9D9D9"/>
<line x1="1" y1="101.5" x2="1410" y2="101.5" stroke="#D9D9D9"/>
<line x1="1" y1="201.5" x2="1410" y2="201.5" stroke="#D9D9D9"/>
<line x1="1" y1="302.5" x2="1410" y2="302.5" stroke="#D9D9D9"/>
<line x1="1" y1="403.5" x2="1410" y2="403.5" stroke="#D9D9D9"/>
<line x1="1" y1="603.5" x2="1410" y2="603.5" stroke="#D9D9D9"/>
<line x1="1" y1="504.5" x2="1410" y2="504.5" stroke="#D9D9D9"/>
<line x1="1" y1="704.5" x2="1410" y2="704.5" stroke="#D9D9D9"/>
<line x1="1" y1="804.5" x2="1410" y2="804.5" stroke="#D9D9D9"/>
<line x1="103.5" y1="804" x2="103.5" y2="1" stroke="#D9D9D9"/>
<line x1="205.5" y1="804" x2="205.5" y2="1" stroke="#D9D9D9"/>
<line x1="0.5" y1="804" x2="0.5" y2="1" stroke="#D9D9D9"/>
<line x1="306.5" y1="804" x2="306.5" y2="1" stroke="#D9D9D9"/>
<line x1="406.409" y1="804.203" x2="406.409" y2="1.00012" stroke="#D9D9D9"/>
<line x1="506.137" y1="804.203" x2="506.137" y2="1.00012" stroke="#D9D9D9"/>
<line x1="605.864" y1="804.203" x2="605.864" y2="1.00012" stroke="#D9D9D9"/>
<line x1="703.591" y1="804.203" x2="703.591" y2="1.00012" stroke="#D9D9D9"/>
<line x1="804.228" y1="805" x2="804.228" y2="1.79749" stroke="#D9D9D9"/>
<line x1="903.955" y1="805" x2="903.955" y2="1.79749" stroke="#D9D9D9"/>
<line x1="1001.68" y1="805" x2="1001.68" y2="1.79749" stroke="#D9D9D9"/>
<line x1="1105.5" y1="804" x2="1105.5" y2="1" stroke="#D9D9D9"/>
<line x1="1206.5" y1="804" x2="1206.5" y2="1" stroke="#D9D9D9"/>
<line x1="1306.5" y1="804" x2="1306.5" y2="1" stroke="#D9D9D9"/>
<line x1="1409.5" y1="805" x2="1409.5" y2="1" stroke="#D9D9D9"/>
</svg>
