<svg width="1005" height="1009" viewBox="0 0 1005 1009" fill="none" xmlns="http://www.w3.org/2000/svg">
<line x1="1" y1="0.5" x2="1005" y2="0.5" stroke="#08D493"/>
<line x1="1" y1="101.228" x2="1005" y2="101.228" stroke="#08D493"/>
<line x1="1" y1="201.954" x2="1005" y2="201.954" stroke="#08D493"/>
<line x1="1" y1="302.682" x2="1005" y2="302.682" stroke="#08D493"/>
<line x1="1" y1="403.409" x2="1005" y2="403.409" stroke="#08D493"/>
<line x1="1" y1="504.136" x2="1005" y2="504.136" stroke="#08D493"/>
<line x1="1" y1="604.864" x2="1005" y2="604.864" stroke="#08D493"/>
<line x1="1" y1="705.591" x2="1005" y2="705.591" stroke="#08D493"/>
<line x1="1" y1="806.318" x2="1005" y2="806.318" stroke="#08D493"/>
<line x1="1" y1="907.046" x2="1005" y2="907.046" stroke="#08D493"/>
<line x1="1" y1="1007.77" x2="1005" y2="1007.77" stroke="#08D493"/>
<line x1="1.22705" y1="1008" x2="1.22705" y2="1" stroke="#08D493"/>
<line x1="103.955" y1="1008" x2="103.955" y2="1" stroke="#08D493"/>
<line x1="204.682" y1="1008" x2="204.682" y2="1" stroke="#08D493"/>
<line x1="304.409" y1="1008" x2="304.409" y2="1" stroke="#08D493"/>
<line x1="404.137" y1="1008" x2="404.137" y2="1" stroke="#08D493"/>
<line x1="503.864" y1="1008" x2="503.864" y2="1" stroke="#08D493"/>
<line x1="601.591" y1="1008" x2="601.591" y2="1" stroke="#08D493"/>
<line x1="702.318" y1="1008" x2="702.318" y2="1" stroke="#08D493"/>
<line x1="803.045" y1="1008" x2="803.045" y2="1" stroke="#08D493"/>
<line x1="903.772" y1="1008" x2="903.772" y2="1" stroke="#08D493"/>
<line x1="1004.5" y1="1008" x2="1004.5" y2="1" stroke="#08D493"/>
</svg>
